<mxfile host="app.diagrams.net" modified="2024-05-27T06:43:20.679Z" agent="Mozilla/5.0 (Windows NT 10.0; Win64; x64) AppleWebKit/537.36 (KHTML, like Gecko) Chrome/125.0.0.0 Safari/537.36 Edg/125.0.0.0" version="24.4.8" etag="L5Y9mb98iyiPHFElE-HO" type="github">
  <diagram name="Страница — 1" id="DpCCVCNzh0pHwDjWdKGD">
    <mxGraphModel>
      <root>
        <mxCell id="0" />
        <mxCell id="1" parent="0" />
      </root>
    </mxGraphModel>
  </diagram>
</mxfile>
